<mxfile host="app.diagrams.net" modified="2024-01-12T16:42:32.534Z" agent="Mozilla/5.0 (Windows NT 10.0; Win64; x64) AppleWebKit/537.36 (KHTML, like Gecko) Chrome/120.0.0.0 Safari/537.36" etag="MLubcNAEyPjE6u0JL_d5" version="22.1.18" type="github">
  <diagram name="Page-1" id="NkRxC4FdzDh6AmyBv8tF">
    <mxGraphModel dx="765" dy="487" grid="1" gridSize="10" guides="1" tooltips="1" connect="1" arrows="1" fold="1" page="1" pageScale="1" pageWidth="827" pageHeight="1169" math="0" shadow="0">
      <root>
        <mxCell id="0" />
        <mxCell id="1" parent="0" />
        <mxCell id="CKCP5HGzSkl7PJuh-u8w-3" style="edgeStyle=orthogonalEdgeStyle;rounded=0;orthogonalLoop=1;jettySize=auto;html=1;" edge="1" parent="1" source="CKCP5HGzSkl7PJuh-u8w-1">
          <mxGeometry relative="1" as="geometry">
            <mxPoint x="580" y="290" as="targetPoint" />
          </mxGeometry>
        </mxCell>
        <mxCell id="CKCP5HGzSkl7PJuh-u8w-5" style="edgeStyle=orthogonalEdgeStyle;rounded=0;orthogonalLoop=1;jettySize=auto;html=1;" edge="1" parent="1" source="CKCP5HGzSkl7PJuh-u8w-1">
          <mxGeometry relative="1" as="geometry">
            <mxPoint x="442" y="170" as="targetPoint" />
          </mxGeometry>
        </mxCell>
        <mxCell id="CKCP5HGzSkl7PJuh-u8w-7" style="edgeStyle=orthogonalEdgeStyle;rounded=0;orthogonalLoop=1;jettySize=auto;html=1;exitX=0;exitY=0.5;exitDx=0;exitDy=0;" edge="1" parent="1" source="CKCP5HGzSkl7PJuh-u8w-1">
          <mxGeometry relative="1" as="geometry">
            <mxPoint x="300" y="290" as="targetPoint" />
          </mxGeometry>
        </mxCell>
        <mxCell id="CKCP5HGzSkl7PJuh-u8w-10" style="edgeStyle=orthogonalEdgeStyle;rounded=0;orthogonalLoop=1;jettySize=auto;html=1;" edge="1" parent="1" source="CKCP5HGzSkl7PJuh-u8w-1">
          <mxGeometry relative="1" as="geometry">
            <mxPoint x="442" y="410" as="targetPoint" />
          </mxGeometry>
        </mxCell>
        <mxCell id="CKCP5HGzSkl7PJuh-u8w-1" value="main app" style="rhombus;whiteSpace=wrap;html=1;" vertex="1" parent="1">
          <mxGeometry x="390" y="240" width="104" height="100" as="geometry" />
        </mxCell>
        <mxCell id="CKCP5HGzSkl7PJuh-u8w-2" style="edgeStyle=orthogonalEdgeStyle;rounded=0;orthogonalLoop=1;jettySize=auto;html=1;exitX=0.5;exitY=1;exitDx=0;exitDy=0;" edge="1" parent="1" source="CKCP5HGzSkl7PJuh-u8w-1" target="CKCP5HGzSkl7PJuh-u8w-1">
          <mxGeometry relative="1" as="geometry" />
        </mxCell>
        <mxCell id="CKCP5HGzSkl7PJuh-u8w-4" value="" style="ellipse;whiteSpace=wrap;html=1;aspect=fixed;" vertex="1" parent="1">
          <mxGeometry x="580" y="250" width="80" height="80" as="geometry" />
        </mxCell>
        <mxCell id="CKCP5HGzSkl7PJuh-u8w-6" value="" style="ellipse;whiteSpace=wrap;html=1;aspect=fixed;" vertex="1" parent="1">
          <mxGeometry x="402" y="90" width="80" height="80" as="geometry" />
        </mxCell>
        <mxCell id="CKCP5HGzSkl7PJuh-u8w-8" value="" style="ellipse;whiteSpace=wrap;html=1;aspect=fixed;" vertex="1" parent="1">
          <mxGeometry x="220" y="250" width="80" height="80" as="geometry" />
        </mxCell>
        <mxCell id="CKCP5HGzSkl7PJuh-u8w-9" value="" style="ellipse;whiteSpace=wrap;html=1;aspect=fixed;" vertex="1" parent="1">
          <mxGeometry x="402" y="410" width="80" height="80" as="geometry" />
        </mxCell>
      </root>
    </mxGraphModel>
  </diagram>
</mxfile>
